<?xml version="1.0" encoding="UTF-8"?>
<svg id="Capa_1" data-name="Capa 1" xmlns="http://www.w3.org/2000/svg" viewBox="0 0 556.04 636.17">
  <defs>
    <style>
      .cls-1 {
        fill: #fff;
        stroke-width: 0px;
      }
    </style>
  </defs>
  <g>
    <path class="cls-1" d="M9.25,151.25c9.62,16.71,19.2,33.35,28.75,49.95l49.95-49.95H9.25Z"/>
    <path class="cls-1" d="M546.37,151.22h-78.7l50.01,50.01c9.54-16.62,19.1-33.28,28.69-50.01Z"/>
  </g>
  <path class="cls-1" d="M211.68,211.19l-82.72,82.72c23.3,40.49,46.47,80.74,69.66,121.02l79.36,79.36,80.23-80.23c22.97-40.03,45.87-79.95,68.88-120.06l-82.81-82.81h-132.6ZM278.19,456.51c-38.38-66.74-74.88-130.21-113.59-197.51h226.85c-37.79,65.9-74.22,129.43-113.25,197.51Z"/>
  <path class="cls-1" d="M278.02,73.72l77.53,77.53h73.72L278.02,0,126.77,151.25h73.72l77.53-77.53Z"/>
  <path class="cls-1" d="M479.28,281.38c-8.98,15.65-17.93,31.26-26.88,46.84l29.92,29.92-110.48,110.48c-30.93,53.92-61.98,108.02-93.46,162.89-31.28-54.35-62.24-108.14-93.17-161.88l-111.5-111.5,30.04-30.04c-8.96-15.56-17.93-31.15-26.93-46.79L0,358.14l278.02,278.02,278.02-278.02-76.77-76.77Z"/>
</svg>