<?xml version="1.0" encoding="UTF-8"?>
<svg id="Capa_1" data-name="Capa 1" xmlns="http://www.w3.org/2000/svg" version="1.1" xmlns:cc="http://creativecommons.org/ns#" xmlns:dc="http://purl.org/dc/elements/1.1/" xmlns:rdf="http://www.w3.org/1999/02/22-rdf-syntax-ns#" viewBox="0 0 800 800">
  <defs>
    <style>
      .cls-1 {
        fill: #00bcf2;
        stroke-width: 0px;
      }

      .cls-2 {
        fill: #fff;
        stroke: #000;
        stroke-miterlimit: 10;
      }
    </style>
  </defs>
  <rect class="cls-2" x="172" y="34" width="456" height="163" rx="68" ry="68"/>
  <rect class="cls-2" x="157" y="306" width="500" height="258"/>
  <path class="cls-1" d="M352.5,799.5c-74.9-5.4-148.9-24.2-194.3-49.5-25.9-14.4-45.6-32-53.3-47.8l-4.6-9.4V105.2l3.6-7.4c16.3-33,68.2-62.8,140.6-80.6,24.6-6.1,60.1-12.1,89.1-15.1,29.6-3.1,108-2.6,137.5.8,78.4,9.2,145.1,29.8,186.3,57.6,15.9,10.7,32.1,27.8,37.6,39.6l4.7,10.1-.4,292.9-.4,292.9-3.8,7.7c-2.1,4.2-8.4,12.6-14,18.5-34.2,36.2-107.5,63.1-203.7,74.5-19.6,2.3-104.8,4.2-124.9,2.8h0ZM490.5,547.7c-.3-.8-11.5-10.7-24.9-22.2s-24.9-21.3-25.6-22,1.8-3,5.5-5.2c3.7-2.2,10.9-8.3,15.9-13.5,14.6-15.3,21.5-34.3,21.5-59.1s-7.4-44.2-22.4-59.2c-15-15.2-32.3-21.7-57.4-21.7-38.7,0-68.5,22.6-78,59.3-3.3,12.6-3.2,38.1,0,49.3,8.6,29.2,31.9,50.3,60.9,55.3,9.8,1.7,11.2,2.4,17.9,9.7,4,4.4,12.1,13,18.2,19.3l10.9,11.4h29c16,0,28.8-.6,28.5-1.4h0ZM391,466.5c-7-3.6-9.6-6.5-13.6-14.6-3.1-6.3-3.6-9.8-3.6-24.6,0-15,.4-18.3,3.7-24.8,5.3-10.7,12.5-15.7,23.7-16.5,15.6-1.1,24.6,6.5,29.3,24.9,5.8,22.6-.6,46.5-14.5,54.5-7.3,4.2-18.1,4.6-25,1.1h0ZM262.4,508.4c30.4-5.8,47.7-23.5,47.7-48.9s-11.1-35.7-42-49.4c-17.6-7.9-24-12.8-24-18.6s6.1-10,13.1-11.3c6.9-1.3,25.2,1.9,36,6.2l9,3.7v-40.1l-9.8-2.2c-6.1-1.3-18.8-2.2-33.4-2.1-20.6,0-24.7.5-32.4,3.6-22.7,9-33.4,24.3-33.3,47.4.2,21.6,11.6,35.1,39.9,47.2,16.7,7.2,23.4,12.6,23.4,19,0,13.7-22.8,15.4-46.9,3.5-6.6-3.3-12.5-6.2-13.2-6.5s-1.2,9-1.2,20.8c0,21.3,0,21.4,3.9,22.9,14.5,5.5,46.6,8,63.1,4.8ZM610.2,488.6v-18.1h-55v-124.1h-48.7v160.3h103.7v-18.1h0ZM440.5,172c48.4-3.4,84.7-9.7,116.6-20.4,31.8-10.6,50.6-23.5,54.8-37.5,1.6-5.4,1.5-7.5-.8-13.4-10.1-26.6-66.8-47-153.4-55.3-37-3.5-104.4-2.4-139.7,2.4-53.9,7.3-97.6,20.8-117.1,36.2-39.3,31.2,2.3,65.4,99,81.5,42,7,96.3,9.5,140.6,6.4h0Z"/>
</svg>